<svg xmlns="http://www.w3.org/2000/svg" width="40.058" height="32" viewBox="0 0 40.058 32">
  <g id="back" transform="translate(0 -3.283)">
    <path id="Path_11" data-name="Path 11" d="M39.444,16.817H.614a.511.511,0,1,1,0-1h38.83a.511.511,0,1,1,0,1Z" transform="translate(0 2.965)" fill="#f49231"/>
    <path id="Path_12" data-name="Path 12" d="M13.037,35.283a.46.46,0,0,1-.354-.179L.146,19.714a.72.72,0,0,1,0-.869L12.684,3.462a.438.438,0,0,1,.707,0,.717.717,0,0,1,0,.868L1.207,19.279,13.391,34.235a.717.717,0,0,1,0,.868A.457.457,0,0,1,13.037,35.283Z" fill="#f49231"/>
  </g>
</svg>
