<svg xmlns="http://www.w3.org/2000/svg" xmlns:xlink="http://www.w3.org/1999/xlink" width="1000" height="655.66" viewBox="0 0 1000 655.66">
  <g id="floor_typical" transform="translate(-855.17 -34)">
    <image id="_04" data-name="04" width="655.66" height="1000" transform="translate(1855.17 34) rotate(90)" xlink:href="floor_typical-image.png"/>
    <path id="_01" data-name="01" d="M326.228,6194.331v-116.39H515.019v3.139h2.687v135.775H479.029v-22.524Z" transform="translate(536 -5655)" fill="#ff7726" opacity="0.65"/>
    <path id="_02" data-name="02" d="M326.228,6196.392h150.4v82.731h2.752v-3.4h37.4v45.17H326.228Z" transform="translate(536 -5655)" fill="#ff7726" opacity="0.65"/>
    <path id="_03" data-name="03" d="M1024.338,6279.435h7.124v38.208h-3.076v3.886H908.418v-3.886h-1.781V6259.2h117.7Z" transform="translate(536 -5655)" fill="#ff7726" opacity="0.65"/>
    <path id="_04-2" data-name="04" d="M1041.636,6259.2v20.382h-7.846v37.735h3.238v4.359h119.921v-4.359H1166v4.359h34.938V6259.2Z" transform="translate(536 -5655)" fill="#ff7726" opacity="0.65"/>
    <path id="_05" data-name="05" d="M1204.044,6228.423h68.645v31.732H1287.1V6317.3h-2.74v3.486h-80.314Z" transform="translate(536 -5655)" fill="#ff7726" opacity="0.65"/>
    <path id="_06" data-name="06" d="M1287.1,6226.719h-83.217v-93.027H1287.1v57.557h-3.019v7.664h3.019Z" transform="translate(536 -5655)" fill="#ff7726" opacity="0.65"/>
    <path id="_07" data-name="07" d="M1034.039,6133.888h127.153v57.146h-3.985v2.989H1146.5v23.289H1034.039Z" transform="translate(536 -5655)" fill="#ff7726" opacity="0.66"/>
    <path id="_08" data-name="08" d="M912.951,6217.435v-23H908.58v-3.076h-2.914v-57.474h125.8v83.547Z" transform="translate(536 -5655)" fill="#ff7726" opacity="0.65"/>
    <path id="_09" data-name="09" d="M777.6,6133.713H902.591v57.494h-2.267v3.238h-4.533v22.99H777.6Z" transform="translate(536 -5655)" fill="#ff7726" opacity="0.65"/>
    <path id="_10" data-name="10" d="M649.088,6191.381v-57.668H774.107v83.346H655.665v-22.73h-3.841v-2.947Z" transform="translate(536 -5655)" fill="#ff7726" opacity="0.65"/>
    <path id="_11" data-name="11" d="M523.649,6077.941v3.369H520.7v135.753H638.775v-22.73h4.63V6191.6h2.315v-57.668H580.686v-55.987Z" transform="translate(536 -5655)" fill="#ff7726" opacity="0.65"/>
    <path id="_12" data-name="12" d="M958.726,5787.1H792.1v140.362H899.9v-2.736h2.458V5858.5H888.327v-22.915h12.329v-2.989h2.615v-8.967h55.455Z" transform="translate(536 -5655)" fill="#ff7726" opacity="0.65"/>
    <path id="_13" data-name="13" d="M905.824,5826.578h82.73v100.863h-82.73Z" transform="translate(536 -5655)" fill="#ff7726" opacity="0.65"/>
    <path id="_14" data-name="14" d="M991.306,5826.578v100.375h36.913v-3.076h8.581v3.076h37.561v-80.626h-7.609v-19.75Z" transform="translate(536 -5655)" fill="#ff7726" opacity="0.65"/>
    <path id="_15" data-name="15" d="M1084.224,5826.578v19.712H1076.5v80.949h80.451v-2.989h4.11v-97.673Z" transform="translate(536 -5655)" fill="#ff7726" opacity="0.65"/>
    <path id="_16" data-name="16" d="M1228.19,5838.2h56.54v2.989h2.74v82.444h-2.74v3.238h-81.821v-81.7h25.281Z" transform="translate(536 -5655)" fill="#ff7726" opacity="0.65"/>
    <path id="_17" data-name="17" d="M1202.909,5828.034h24.932v7.286h56.179v-2.429h3.076v-118.51h-3.076v-2.914h-56.179v63.95h-24.932Z" transform="translate(536 -5655)" fill="#ff7726" opacity="0.65"/>
    <path id="_18" data-name="18" d="M980.362,5725h20.626v59.516h-209v-73.243H956.369v22.1h23.993Z" transform="translate(536 -5655)" fill="#ff7726" opacity="0.65"/>
  </g>
</svg>
