<svg id="ronza_logo" xmlns="http://www.w3.org/2000/svg" width="150" height="118.312" viewBox="0 0 150 118.312">
  <path id="Path_425" data-name="Path 425" d="M10.955,381.152a5.492,5.492,0,0,0,2.606-2.13,5.739,5.739,0,0,0,.986-3.231,5.929,5.929,0,0,0-1.86-4.361,6.148,6.148,0,0,0-4.5-1.848H0V387.54H3.849v-5.9H6.878l3.564,5.9H14.8Zm-.9-3.618a2.539,2.539,0,0,1-1.873.772H3.849v-5.261H8.185a2.566,2.566,0,0,1,1.873.759,2.507,2.507,0,0,1,.769,1.861,2.547,2.547,0,0,1-.769,1.87" transform="translate(0 -284.061)" fill="#fff"/>
  <path id="Path_426" data-name="Path 426" d="M88.646,371.5a8.8,8.8,0,0,0-6.478-2.693c-.259,0-.516.009-.765.029a9,9,0,0,0-1.038.134,9.178,9.178,0,0,0,1.8,18.179,8.93,8.93,0,0,0,6.517-2.693,8.721,8.721,0,0,0,2.667-6.388v-.077a8.954,8.954,0,0,0-2.706-6.491m-2.67,10.442a5.28,5.28,0,0,1-7.605,0,5.856,5.856,0,0,1,0-7.916,5.251,5.251,0,0,1,7.605,0,5.892,5.892,0,0,1,0,7.916" transform="translate(-56.093 -283.464)" fill="#fff"/>
  <path id="Path_427" data-name="Path 427" d="M171.074,369.583v14.262l-6.03-14.262h-6.158V387.54h3.772V372.814l6.209,14.727h5.975V369.583Z" transform="translate(-122.12 -284.061)" fill="#fff"/>
  <path id="Path_428" data-name="Path 428" d="M258.446,369.583H245v3.59h8.62L245,383.512v4.028h13.19V384l-9.033-.026,9.289-11.086Z" transform="translate(-188.307 -284.061)" fill="#fff"/>
  <path id="Path_429" data-name="Path 429" d="M327.946,369.582H322.1l-6.106,17.957h4l1.182-3.564h7.618l1.156,3.564h3.977Zm-5.645,10.9,2.718-8.236,2.645,8.236Z" transform="translate(-242.869 -284.06)" fill="#fff"/>
  <path id="Path_430" data-name="Path 430" d="M169.418,465.133v.8h3.807v9.773h.861v-9.773h3.686v-.8Z" transform="translate(-130.214 -357.5)" fill="#fff"/>
  <path id="Path_431" data-name="Path 431" d="M217.626,466.185a5.242,5.242,0,0,0-7.493-.006,5.541,5.541,0,0,0-.016,7.65,5.285,5.285,0,0,0,7.525.009,5.229,5.229,0,0,0,1.527-3.778v-.045a5.28,5.28,0,0,0-1.543-3.83m-.579,7.077a4.419,4.419,0,0,1-6.33-.007,4.795,4.795,0,0,1,.013-6.5,4.208,4.208,0,0,1,3.167-1.335,4.144,4.144,0,0,1,3.141,1.345,4.8,4.8,0,0,1,.01,6.494" transform="translate(-160.324 -357.095)" fill="#fff"/>
  <path id="Path_432" data-name="Path 432" d="M269.422,465.133l-2.385,10.212L264.3,465.133h-1.482l-2.779,10.212-2.373-10.212h-.89l2.507,10.573h1.5l2.779-10.272,2.706,10.272h1.5l2.552-10.573Z" transform="translate(-197.358 -357.5)" fill="#fff"/>
  <path id="Path_433" data-name="Path 433" d="M328.1,465.933v-.8h-7.285v10.574H328.1v-.8h-6.436V470.8H327.5v-.772h-5.831v-4.092Z" transform="translate(-246.58 -357.5)" fill="#fff"/>
  <path id="Path_434" data-name="Path 434" d="M364.995,471.416a3.067,3.067,0,0,0,1.889-1,3.022,3.022,0,0,0,.756-2.094,3.2,3.2,0,0,0-.862-2.258,3.019,3.019,0,0,0-2.328-.929h-4.457v10.573h.846v-4.214h3.218l2.722,4.214h.967Zm-4.156-.679v-4.819h3.612a2.214,2.214,0,0,1,1.745.688,2.485,2.485,0,0,1,.612,1.713,2.25,2.25,0,0,1-.724,1.768,2.69,2.69,0,0,1-1.86.65Z" transform="translate(-276.69 -357.5)" fill="#fff"/>
  <path id="Path_435" data-name="Path 435" d="M192.1,73.658a41.172,41.172,0,0,0,15.975-32.537A41.166,41.166,0,0,0,166.953,0H125.832V74.968l-6.253,6.837L156.44,55.547l57.337,62.659,28.131.106ZM180.869,63.482,164.958,49.069l-8.31-7.525L140.613,58.762V14.781h26.34a26.339,26.339,0,0,1,13.917,48.7" transform="translate(-91.908)" fill="#fff"/>
</svg>
