<svg xmlns="http://www.w3.org/2000/svg" width="200" height="77.929" viewBox="0 0 200 77.929">
  <g id="logo" transform="translate(-483.467 -354.321)">
    <path id="Path_436" data-name="Path 436" d="M528.6,421.751a21.2,21.2,0,0,0-5.978-10.4c-3.409-3.428-8.37-4.458-13.056-4.384a23.267,23.267,0,0,0-4.258.408,11.691,11.691,0,0,0,2.513-1.279,4.849,4.849,0,0,0-2.253-.066c-1.025.061-2.048.159-3.068.269a15.451,15.451,0,0,0-7.67,2.945c0,.014,0,.026.006.038a10.037,10.037,0,0,0-3.939,7.764,5.454,5.454,0,0,1,0,.811c-.061.326-.307.476-.542.686a11.391,11.391,0,0,0-1.489,1.592,5.668,5.668,0,0,0-1.332,3.744,1.332,1.332,0,0,1,.014.455c-.075.213-.243.3-.42.426-.473.34-.95.678-1.411,1.035a5.6,5.6,0,0,0-2.189,2.662c-.3,1.127.622,1.882.48,2.975a5.511,5.511,0,0,0,1.038,4.008c.174.245.263.318.214.635a8.482,8.482,0,0,1-.347.907,6.955,6.955,0,0,0-.242,2.227,10.512,10.512,0,0,0,1.5,4.758c.317.542.8.951.718,1.6-.108.866-.292,1.724-.4,2.591a28.045,28.045,0,0,0-.176,4.816,16.889,16.889,0,0,0,2.942,9.383,12.648,12.648,0,0,0,8.787,4.926,2.815,2.815,0,0,0-1.11-.532,7.877,7.877,0,0,1-1.19-.549,14.859,14.859,0,0,1-2.351-1.637A12.509,12.509,0,0,1,490,460.147a20.553,20.553,0,0,1-1.133-11.285,33.8,33.8,0,0,0,1.071,4.826,18.482,18.482,0,0,0,.889,2.391,8.942,8.942,0,0,0,1.06,2.033l.074-.032a11.29,11.29,0,0,1,.854-7.737c.233.407.041,1.219.027,1.674a4.671,4.671,0,0,0,.079,1.541c.5-.848.893-1.752,1.393-2.605.554-.944,1.123-1.879,1.646-2.84a23.1,23.1,0,0,0,2.344-6.177c.353.427.147,1.412.077,1.911a14.1,14.1,0,0,1-.46,1.982c-.392,1.344-.839,2.67-1.216,4.018a33.34,33.34,0,0,0-1.54,8.048,13.972,13.972,0,0,0,1.61,6.925,8.417,8.417,0,0,0,2.062,2.855,33.018,33.018,0,0,0,3.057,2.147,21.384,21.384,0,0,0,7.654,3.2c0-.026.01-.052.015-.078-4.849-2.324-9.708-5.613-11.237-11.069a19.14,19.14,0,0,1,.032-8.949c.619-3.049,1.773-5.964,2.325-9.023a16.15,16.15,0,0,0,.387-5.107,9.559,9.559,0,0,0-1.922-4.152l.064-.068a11.5,11.5,0,0,1,3.025,2.332,10.185,10.185,0,0,1,1.976,3.309,15.353,15.353,0,0,1,.418,7.387c.514-.342.572-1.4.706-1.957a14.326,14.326,0,0,0,.382-2.65,13.983,13.983,0,0,0-.59-5.089,12.7,12.7,0,0,0-2.383-4.35,3.115,3.115,0,0,0-1.728-1.245,10.873,10.873,0,0,0-2.6.163c-.012-.032-.02-.067-.029-.1a3.3,3.3,0,0,1,1.021-.548c.167-.071.936-.274,1-.463.1-.315-1.539-1.489-1.825-1.56a7.084,7.084,0,0,0-2.634.118c-.815.138-1.61.368-2.426.5,1.67-1.716,4.476-2,6.721-1.632a9.6,9.6,0,0,1,5.7,3.355,13.725,13.725,0,0,0-.347-3.289c2.039,1.679,3.124,4.543,3.75,7.027a2.237,2.237,0,0,0,.133-1.189c.007-.4.008-.8-.017-1.206a13.059,13.059,0,0,0-.393-2.527,14.3,14.3,0,0,0-2.039-4.451c-.456-.65-.971-1.256-1.467-1.876-.224-.28-.385-.514-.768-.5a5.959,5.959,0,0,0-1.245.339c-.8.219-1.6.421-2.406.621a16.513,16.513,0,0,1-2.633.586c.159-.341.689-.542.992-.74l1.107-.725,2.264-1.485,2.163-1.419c.249-.163.844-.391.766-.741-.051-.231-.642-.615-.808-.758a6.718,6.718,0,0,0-3.825-1.629,15.84,15.84,0,0,0-4.285.513l-.047-.08c.149-.2.74-1.184.969-1.184.246-.392-.31-.2-.467-.138-.525.2-1.032.433-1.536.682a19.206,19.206,0,0,0-3.348,2.03,6.185,6.185,0,0,0-2.221,2.559c-.1.3-.264.832.152.82.209-.006.592-.344.776-.458a1.839,1.839,0,0,1,.625-.313c.006.019.013.038.019.056q-1.517,1.329-3.041,2.65a.053.053,0,0,1-.017-.012c-.143-.057.164-.591.21-.7a1.082,1.082,0,0,0,.082-.873,3.058,3.058,0,0,1,.74-2.563,17.255,17.255,0,0,1,2.1-2.359q.62-.591,1.275-1.145a4.3,4.3,0,0,1,.733-.605c0-.114.739-.6.833-.679-.236-.166-.7.168-.929.263a5.425,5.425,0,0,1-1.2.494c-.086.01-.166.1-.259.032-.172-.127.049-.865.08-1.061a9.183,9.183,0,0,1,1.909-4.543,9.811,9.811,0,0,1,3.926-2.766,16.844,16.844,0,0,1,2.564-.738,5.777,5.777,0,0,1,1.985-.371q-.489.594-.981,1.187c-.12.145-.691,1.027-.852,1.027.011.028.021.056.03.085a3.112,3.112,0,0,0,1.062-.279,17.873,17.873,0,0,1,1.922-.594,29.28,29.28,0,0,1,4.981-.78,17.227,17.227,0,0,1,9.414,1.654,16.444,16.444,0,0,1-1.738-.216,19.741,19.741,0,0,0-2.494-.1,34.684,34.684,0,0,0-4.638.414,17.282,17.282,0,0,0-7.918,3.3c.016.035.035.071.052.107a27.2,27.2,0,0,1,7.471-1.759,19.284,19.284,0,0,1,3.961.087c.72.089,1.434.217,2.142.374a11.957,11.957,0,0,1,2,.527,16.421,16.421,0,0,1,4.142,2.1,11.811,11.811,0,0,0-1.79-3.28c4.384,2.058,7.378,6.125,9,10.594a.894.894,0,0,0,.02-.394m-34.163,3.225c.345-.324.7-.643,1.043-.964.4-.364.484-.407.453-.954-.132.022-.266.038-.4.064.122-1.1.851-1.2,1.818-1.357a21.494,21.494,0,0,1,3.837-.237c.058-.116.445.177.452.192-2.485,1.246-4.946,2.514-7.444,3.7-.028-.038-.052-.077-.077-.114.106-.113.2-.232.316-.334m2.648,16.43a5.456,5.456,0,0,1-1.9,3.078c-.257-.075-.435-.664-.559-.866a3.669,3.669,0,0,0-.751,1.49,3.732,3.732,0,0,0-.142.931c0,.18.123.612.03.762-.192.31-1.01-.077-1.243-.184a5.422,5.422,0,0,1-1.391-.959,3.686,3.686,0,0,1-.786-1.078c-.285-.565-.707-.657-1.193-1.024a2.972,2.972,0,0,1-1.311-2.776l.071,0a3.413,3.413,0,0,0,.909,1.407c.154.125.715.588.938.415.138-.107-.014-.582-.028-.714a7.6,7.6,0,0,1-.036-1.048,5.6,5.6,0,0,1,.314-1.972c.658,1.684,1.186,3.463,2.5,4.775a21.963,21.963,0,0,1,1.714-2.038c.2-.176.658-.734.921-.53.217.168.275.794.413,1.05a1.8,1.8,0,0,0,.8-1.569,5.28,5.28,0,0,0-.668-1.951,3.135,3.135,0,0,1,1.4,2.8m-8.3-13.624a10.13,10.13,0,0,0,2.093-.312,7.65,7.65,0,0,1,1.682-.641c-.4.634-.958.886-.9,1.7.057.881-.489,1.063-1.194,1.415-.67.335-1.619.669-1.857,1.457a3.668,3.668,0,0,0,.657,2.461c.417.64,1.3.632,1.962.86.938.323,1.832.749,2.752,1.119a7.81,7.81,0,0,0,2.624.773,3.159,3.159,0,0,0,1.088-.1c.127-.077.2-.35.317-.362-.331,1.766-2.724,1.163-3.87.81a42.8,42.8,0,0,0-4.82-1.328l.016-.04a6.055,6.055,0,0,0-2.73,1.647,7.213,7.213,0,0,1,1.255-1.8,1.1,1.1,0,0,1-.171-.2c.121-.121.388-.237.475-.376.167-.269.084-.255-.114-.5a3.1,3.1,0,0,1-.577-1.144c-.109-.391-.188-2.235-.981-1.968-.223.075-.3.7-.337.924a3.306,3.306,0,0,0,.016,1.135c.081.466.375.878.443,1.328a.548.548,0,0,0-.065.049,4.45,4.45,0,0,1-1.263-2.426,18.47,18.47,0,0,1,.193-2.043,1.454,1.454,0,0,0-.407-1.016c-.242-.26-.311-.38-.163-.715.128-.29,1.288-1.778,1.616-1.576-.151.189-.636.6-.622.885.017.348.523.259.759.246.714-.039,1.419-.174,2.128-.257" transform="translate(0 -40.777)" fill="#fff"/>
    <path id="Path_437" data-name="Path 437" d="M620.1,480.853s10.009-.1,10.832,8.576c0,0,.96-4.276-3.977-9.183l.366,1.583s-4.855-1.141-7.221-.975" transform="translate(-107.963 -99.499)" fill="#fff"/>
    <path id="Path_438" data-name="Path 438" d="M600.474,360.925v-6.6l-15.481,7.988-.644,4.777c.735.045.573-1.293,3.185-1.765l.106-2.413,9.025-4.838-.185,4.974-4.45,2.4-.115,1.834c.155.025.31.052.465.079l.074-1.289,3.954-1.774-.1,5.362c1.664.5,2.582,1.159,4.236,1.814l-.068-9.022h0l8.88-4.377,1.619,74.18h.649V354.327Z" transform="translate(-79.712 0)" fill="#fff"/>
    <path id="Path_439" data-name="Path 439" d="M755.274,381.407v-26.7h4.538v13.882l12.318-13.882h5.606l-11.021,12.28,11.365,14.415h-5.606l-8.733-11.059-3.928,4.347v6.712Z" transform="translate(-214.768 -0.309)" fill="#fff"/>
    <path id="Path_440" data-name="Path 440" d="M881.236,354.712V366h13.539V354.712h4.538v26.7h-4.538V370.081H881.236v11.326h-4.5v-26.7Z" transform="translate(-310.741 -0.309)" fill="#fff"/>
    <path id="Path_441" data-name="Path 441" d="M992.75,381.408l9.5-26.7h7.208l9.343,26.7h-4.729l-2.021-5.834h-12.47l-2.1,5.834Zm17.924-9.953-4.805-14.148-4.958,14.148Z" transform="translate(-402.41 -0.31)" fill="#fff"/>
    <path id="Path_442" data-name="Path 442" d="M1125.3,381.407v-26.7h4.5v22.5h13.424v4.195Z" transform="translate(-507.146 -0.309)" fill="#fff"/>
    <path id="Path_443" data-name="Path 443" d="M1242.71,354.712v4.2h-14.492V366h12.967v4.119h-12.967v7.094h14.492v4.195h-18.992v-26.7Z" transform="translate(-584.91 -0.309)" fill="#fff"/>
    <path id="Path_444" data-name="Path 444" d="M1326.222,381.12V354.348h9.5a13.38,13.38,0,0,1,9.687,3.852,12.76,12.76,0,0,1,3.966,9.534v.114a12.673,12.673,0,0,1-3.928,9.439,13.382,13.382,0,0,1-9.725,3.832Zm4.538-4.233h4.958a8.87,8.87,0,0,0,6.635-2.612,9.146,9.146,0,0,0-6.635-15.693h-4.958Z" transform="translate(-665.903 -0.021)" fill="#fff"/>
    <path id="Path_445" data-name="Path 445" d="M758.249,512.178a11.838,11.838,0,0,1,7.093-2.136,16.686,16.686,0,0,1,9.725,3.013v4.691a21.281,21.281,0,0,0-4.786-2.536,13.952,13.952,0,0,0-4.939-.972,7.731,7.731,0,0,0-3.89.934,2.833,2.833,0,0,0-1.64,2.536,2.182,2.182,0,0,0,.572,1.487,4.3,4.3,0,0,0,1.525,1.068,16.325,16.325,0,0,0,2.288.782q1.334.363,2.746.706c.177.026.318.051.419.076q4.767,1.183,6.712,3.2a6.6,6.6,0,0,1,1.945,4.729,6.352,6.352,0,0,1-1.506,4.252,8.517,8.517,0,0,1-3.718,2.555,14.1,14.1,0,0,1-4.729.782h-.229a15.026,15.026,0,0,1-10.144-3.852v-4.729q5,4.348,10.449,4.347a7.833,7.833,0,0,0,3.814-.858,2.712,2.712,0,0,0,1.564-2.5,2.965,2.965,0,0,0-1.64-2.517,21.072,21.072,0,0,0-5.759-2.021,16.76,16.76,0,0,1-6.693-2.9,5.688,5.688,0,0,1-2.155-4.576,6.562,6.562,0,0,1,2.975-5.568" transform="translate(-214.768 -123.043)" fill="#fff"/>
    <path id="Path_446" data-name="Path 446" d="M860.268,538.191l9.5-26.7h7.208l9.343,26.7h-4.729l-2.021-5.834H867.094l-2.1,5.834Zm17.924-9.953-4.805-14.148-4.958,14.148Z" transform="translate(-297.729 -124.192)" fill="#fff"/>
    <path id="Path_447" data-name="Path 447" d="M1005.285,511.5a8.638,8.638,0,0,1,5.949,1.964,6.409,6.409,0,0,1,2.212,5.015,6.843,6.843,0,0,1-.972,3.623,6.435,6.435,0,0,1-2.612,2.44,6.963,6.963,0,0,1,3.451,2.517,6.725,6.725,0,0,1,1.163,3.928,6.617,6.617,0,0,1-2.269,5.205,9.039,9.039,0,0,1-6.2,2H993.272V511.5Zm-7.627,4.081v7.36h7.4a4.091,4.091,0,0,0,2.936-1.049,3.542,3.542,0,0,0,1.106-2.689,3.454,3.454,0,0,0-1.067-2.593,4,4,0,0,0-2.9-1.029Zm0,11.059v7.475h8.046a4.317,4.317,0,0,0,3.032-1.03,3.543,3.543,0,0,0,1.125-2.746,3.349,3.349,0,0,0-1.183-2.708,4.587,4.587,0,0,0-3.051-.992Z" transform="translate(-402.822 -124.192)" fill="#fff"/>
    <path id="Path_448" data-name="Path 448" d="M1110.266,538.191V511.5h11.861a8.822,8.822,0,0,1,8.962,8.847,8.14,8.14,0,0,1-1.6,4.958,7.817,7.817,0,0,1-4.157,2.937l6.1,9.953h-5.111l-5.834-9.382h-5.721v9.382Zm11.67-13.347a4.717,4.717,0,0,0,3.394-1.316,4.422,4.422,0,0,0,1.373-3.337,4.6,4.6,0,0,0-1.258-3.279,4.349,4.349,0,0,0-3.318-1.335h-7.361v9.267Z" transform="translate(-495.265 -124.192)" fill="#fff"/>
    <path id="Path_449" data-name="Path 449" d="M1206.932,511.5h4.882l6.826,13.042,6.826-13.042h4.881l-9.381,18.038v8.657h-4.538v-8.542Z" transform="translate(-571.646 -124.192)" fill="#fff"/>
    <path id="Path_450" data-name="Path 450" d="M756.926,668.555v4.86h6.015v-4.86h1.668v11.227h-1.668v-4.876h-6.015v4.876h-1.652V668.555Z" transform="translate(-214.768 -248.292)" fill="#fff"/>
    <path id="Path_451" data-name="Path 451" d="M857.545,669.687a5.653,5.653,0,0,1,8.028.008,5.621,5.621,0,0,1,1.676,4.066,5.544,5.544,0,0,1-1.66,4.05,5.663,5.663,0,0,1-8.044,0,5.819,5.819,0,0,1,0-8.124m0,4.074a4.135,4.135,0,0,0,1.155,2.951,3.981,3.981,0,0,0,5.734,0,4.391,4.391,0,0,0-.008-5.927,3.954,3.954,0,0,0-5.726,0,4.184,4.184,0,0,0-1.155,2.975" transform="translate(-294.272 -247.869)" fill="#fff"/>
    <path id="Path_452" data-name="Path 452" d="M970.844,679.782V668.555H972.5v9.688h5.71v1.54Z" transform="translate(-385.101 -248.292)" fill="#fff"/>
    <path id="Path_453" data-name="Path 453" d="M1070.929,679.737V668.478h3.865a5.62,5.62,0,0,1,4.082,1.62,5.378,5.378,0,0,1,1.66,4.01v.048a5.329,5.329,0,0,1-1.652,3.97,5.627,5.627,0,0,1-4.09,1.612Zm1.668-1.556h2.2a4.076,4.076,0,1,0,0-8.148h-2.2Z" transform="translate(-464.183 -248.231)" fill="#fff"/>
    <rect id="Rectangle_87" data-name="Rectangle 87" width="1.668" height="11.227" transform="translate(632.841 420.263)" fill="#fff"/>
    <path id="Path_454" data-name="Path 454" d="M1284.942,668.555l4.956,10.137V668.555h1.62v11.227h-2.887l-5.02-10.313v10.313h-1.62V668.555Z" transform="translate(-630.954 -248.292)" fill="#fff"/>
    <path id="Path_455" data-name="Path 455" d="M1385.465,669.687a5.451,5.451,0,0,1,4.026-1.668,5.258,5.258,0,0,1,3.079.938,5.643,5.643,0,0,1,2.005,2.51l-1.6.417a3.819,3.819,0,0,0-1.387-1.676,3.675,3.675,0,0,0-2.093-.617,3.8,3.8,0,0,0-2.879,1.211,4.143,4.143,0,0,0-1.146,2.959,4.094,4.094,0,0,0,1.146,2.935,3.811,3.811,0,0,0,2.879,1.2,3.63,3.63,0,0,0,2.43-.866,3.951,3.951,0,0,0,1.307-2.326l-3.737.016-.016-1.411h5.373v.577a5.58,5.58,0,0,1-1.516,4,5.069,5.069,0,0,1-3.841,1.6,5.465,5.465,0,0,1-4.034-1.676,5.79,5.79,0,0,1,.008-8.124" transform="translate(-711.396 -247.869)" fill="#fff"/>
  </g>
</svg>
