<svg xmlns="http://www.w3.org/2000/svg" width="1670.97" height="393" viewBox="0 0 1670.97 393">
  <g id="Group_74" data-name="Group 74" transform="translate(-0.295 -0.417)">
    <g id="logo" transform="translate(0.295 0.417)">
      <path id="Rectangle_42" data-name="Rectangle 42" d="M0,0H357a36,36,0,0,1,36,36V393a0,0,0,0,1,0,0H36A36,36,0,0,1,0,357V0A0,0,0,0,1,0,0Z" fill="#f49231"/>
      <path id="Rectangle_43" data-name="Rectangle 43" d="M0,0H59.394a0,0,0,0,1,0,0V285.091a0,0,0,0,1,0,0H12a12,12,0,0,1-12-12V0A0,0,0,0,1,0,0Z" transform="translate(56.424 53.455)" fill="#fff"/>
      <path id="Union_1" data-name="Union 1" d="M107.171,273.212V160.077H54.925v57.672H0V50.222H54.925v54.012h52.246V0h49.395a10,10,0,0,1,10,10V273.212Z" transform="translate(169.011 59.394)" fill="#fff"/>
    </g>
    <g id="Group_70" data-name="Group 70" transform="translate(603.554 75.455)">
      <path id="Path_356" data-name="Path 356" d="M47.8,64.416H39.671V36.064H8.749V64.416H.66V3.077H8.749V29.45H39.671V3.077H47.8Zm60.471-16.051h-25.7L76.8,64.416H68.461L91.885,3.077h7.078l23.466,61.339h-8.3ZM85.018,41.751h20.854L95.424,13.061Zm90.972-4.424H150.249V64.416h-8.089V3.077h38V9.691H150.249V30.713H175.99ZM236,36.064H209.414V57.8h30.88v6.614H201.326V3.077h38.548V9.691H209.414V29.45H236ZM267.905,57.8H303v6.614H258.342V58.35L291.961,9.691H258.89V3.077H301.65v5.9ZM402.918,44.953q-1.137,9.732-7.183,15.019t-16.072,5.287q-10.869,0-17.42-7.794t-6.551-20.854v-5.9a34.949,34.949,0,0,1,3.054-15.04A22.814,22.814,0,0,1,367.4,5.71a24.105,24.105,0,0,1,12.976-3.476q9.774,0,15.672,5.456t6.867,15.1h-8.131q-1.053-7.353-4.571-10.649t-9.837-3.3a14.472,14.472,0,0,0-12.154,5.734q-4.4,5.734-4.4,16.317v5.945q0,9.993,4.171,15.9a13.477,13.477,0,0,0,11.67,5.9q6.741,0,10.343-3.054t4.782-10.637Zm69.7-9.226a37.945,37.945,0,0,1-3.033,15.735,22.975,22.975,0,0,1-8.594,10.258,23.715,23.715,0,0,1-34.524-10.174,36.408,36.408,0,0,1-3.181-15.272V31.851a37.494,37.494,0,0,1,3.075-15.63,22.745,22.745,0,0,1,21.57-13.987,23.778,23.778,0,0,1,13,3.56,22.933,22.933,0,0,1,8.657,10.322,38.129,38.129,0,0,1,3.033,15.735Zm-8.047-3.96q0-10.911-4.381-16.746T447.928,9.186a14.3,14.3,0,0,0-12.07,5.835q-4.4,5.835-4.529,16.2v4.508q0,10.574,4.445,16.62a14.356,14.356,0,0,0,12.238,6.045q7.836,0,12.133-5.708t4.424-16.367Zm78.8,32.65h-8.131l-30.88-47.268V64.416h-8.131V3.077h8.131l30.965,47.479V3.077h8.047ZM587.28,37.075q-10.406-2.991-15.145-7.351a14.046,14.046,0,0,1-4.74-10.764,14.837,14.837,0,0,1,5.793-11.986q5.793-4.739,15.061-4.739a25.13,25.13,0,0,1,11.269,2.443,18.53,18.53,0,0,1,7.667,6.741,17.236,17.236,0,0,1,2.717,9.395h-8.131a11.215,11.215,0,0,0-3.539-8.773q-3.539-3.192-9.984-3.192-5.982,0-9.332,2.638a8.8,8.8,0,0,0-3.349,7.322,7.917,7.917,0,0,0,3.181,6.352q3.181,2.6,10.827,4.748a50.235,50.235,0,0,1,11.964,4.743,18.157,18.157,0,0,1,6.4,6.045,15.43,15.43,0,0,1,2.085,8.131,14.332,14.332,0,0,1-5.814,11.943q-5.814,4.487-15.546,4.487a28.832,28.832,0,0,1-11.8-2.422,19.852,19.852,0,0,1-8.447-6.635,16.192,16.192,0,0,1-2.97-9.563h8.131a10.565,10.565,0,0,0,4.108,8.784q4.108,3.223,10.975,3.223,6.4,0,9.816-2.612a8.484,8.484,0,0,0,3.412-7.12,8.329,8.329,0,0,0-3.16-6.972Q595.579,39.476,587.28,37.075Zm87.77-34V44.784q-.042,8.679-5.456,14.2t-14.682,6.193l-2.149.084q-10.069,0-16.051-5.435t-6.067-14.956V3.077h8V44.616q0,6.656,3.665,10.343t10.448,3.686q6.867,0,10.511-3.665t3.644-10.322V3.077ZM707.421,57.8H736.49v6.614h-37.2V3.077h8.131ZM787.987,9.691H768.271V64.416h-8.047V9.691H740.55V3.077h47.437Zm51.118,38.674h-25.7l-5.772,16.051h-8.341L822.718,3.077H829.8l23.466,61.339h-8.3Zm-23.255-6.614H836.7l-10.448-28.69ZM920.135,64.416H912l-30.88-47.268V64.416h-8.131V3.077h8.131l30.965,47.479V3.077h8.047Zm67-54.725H967.42V64.416h-8.047V9.691H939.7V3.077h47.437Zm37.974,27.384q-10.406-2.991-15.145-7.351a14.046,14.046,0,0,1-4.74-10.764,14.838,14.838,0,0,1,5.793-11.986q5.793-4.739,15.061-4.739a25.13,25.13,0,0,1,11.27,2.443,18.529,18.529,0,0,1,7.667,6.741,17.235,17.235,0,0,1,2.717,9.395H1039.6a11.215,11.215,0,0,0-3.539-8.773q-3.539-3.192-9.985-3.192-5.982,0-9.331,2.638a8.8,8.8,0,0,0-3.349,7.322,7.916,7.916,0,0,0,3.181,6.352q3.181,2.6,10.827,4.748a50.236,50.236,0,0,1,11.964,4.743,18.156,18.156,0,0,1,6.4,6.045,15.43,15.43,0,0,1,2.085,8.131,14.332,14.332,0,0,1-5.814,11.943q-5.814,4.487-15.545,4.487a28.832,28.832,0,0,1-11.8-2.422,19.851,19.851,0,0,1-8.447-6.635,16.193,16.193,0,0,1-2.97-9.563h8.131a10.564,10.564,0,0,0,4.107,8.784q4.108,3.223,10.975,3.223,6.4,0,9.816-2.612a8.484,8.484,0,0,0,3.412-7.12,8.329,8.329,0,0,0-3.16-6.972Q1033.41,39.476,1025.111,37.075Z" transform="translate(6.461 -2.234)" fill="#f2f2f2"/>
      <path id="Path_357" data-name="Path 357" d="M9.72,2.692,27.266,46.485,44.813,2.692h9.179V56.364H46.914v-20.9l.664-22.56L29.957,56.364H24.538L6.955,13.014l.7,22.449v20.9H.578V2.692ZM116.532,31.261a33.2,33.2,0,0,1-2.654,13.768,20.1,20.1,0,0,1-7.52,8.976,20.751,20.751,0,0,1-30.209-8.9A31.857,31.857,0,0,1,73.365,31.74V27.87a32.807,32.807,0,0,1,2.691-13.676A19.9,19.9,0,0,1,94.93,1.955,20.806,20.806,0,0,1,106.3,5.07a20.067,20.067,0,0,1,7.575,9.031,33.363,33.363,0,0,1,2.654,13.768ZM109.491,27.8q0-9.547-3.834-14.653A12.645,12.645,0,0,0,94.93,8.037a12.509,12.509,0,0,0-10.561,5.105q-3.852,5.105-3.963,14.174v3.944q0,9.253,3.889,14.542A12.562,12.562,0,0,0,95,51.093q6.856,0,10.616-4.995t3.871-14.321Zm67.664,28.569H170.04V31.556H142.983V56.364h-7.078V2.692h7.078V25.768H170.04V2.692h7.114ZM228.783,42.32H206.3l-5.05,14.045h-7.3l20.5-53.672h6.193l20.532,53.672h-7.262Zm-20.348-5.787h18.247l-9.142-25.1Zm57.858-33.84L283.84,46.485,301.387,2.692h9.179V56.364h-7.078v-20.9l.664-22.56-17.62,43.461h-5.419l-17.583-43.35.7,22.449v20.9h-7.078V2.692Zm95.864,28.863H338.9V50.577h27.02v5.787h-34.1V2.692h33.729V8.48H338.9V25.768h23.26Zm21.328,24.809V2.692h15.151a24.389,24.389,0,0,1,12.386,3.1,20.942,20.942,0,0,1,8.313,8.81A28.676,28.676,0,0,1,422.3,27.722V31.15a28.777,28.777,0,0,1-2.931,13.307A20.614,20.614,0,0,1,411,53.231a25.943,25.943,0,0,1-12.662,3.133ZM390.562,8.48v42.1h7.446q8.184,0,12.736-5.091t4.553-14.5V27.849q0-9.149-4.295-14.223T398.82,8.48ZM499.533,31.556h-23.26V50.577h27.02v5.787H469.2V2.692h33.729V8.48H476.273V25.768h23.26Zm37.142.885q-9.105-2.617-13.252-6.433a12.29,12.29,0,0,1-4.147-9.418A12.983,12.983,0,0,1,524.344,6.1q5.069-4.147,13.178-4.147a21.988,21.988,0,0,1,9.861,2.138,16.214,16.214,0,0,1,6.709,5.9,15.082,15.082,0,0,1,2.378,8.22h-7.114a9.814,9.814,0,0,0-3.1-7.676q-3.1-2.793-8.737-2.793-5.234,0-8.165,2.308a7.7,7.7,0,0,0-2.931,6.407,6.927,6.927,0,0,0,2.783,5.558q2.783,2.271,9.474,4.155a43.959,43.959,0,0,1,10.469,4.151,15.887,15.887,0,0,1,5.6,5.29,13.5,13.5,0,0,1,1.825,7.114,12.54,12.54,0,0,1-5.087,10.451q-5.087,3.926-13.6,3.926a25.228,25.228,0,0,1-10.322-2.12,17.37,17.37,0,0,1-7.391-5.806,14.168,14.168,0,0,1-2.6-8.368h7.114a9.244,9.244,0,0,0,3.594,7.686q3.594,2.82,9.6,2.82,5.6,0,8.589-2.285a7.424,7.424,0,0,0,2.986-6.23,7.288,7.288,0,0,0-2.765-6.1Q543.937,34.542,536.675,32.44Zm53.545,0q-9.1-2.617-13.252-6.433a12.29,12.29,0,0,1-4.147-9.418A12.983,12.983,0,0,1,577.89,6.1q5.069-4.147,13.178-4.147a21.988,21.988,0,0,1,9.861,2.138,16.214,16.214,0,0,1,6.709,5.9,15.082,15.082,0,0,1,2.378,8.22H602.9a9.813,9.813,0,0,0-3.1-7.676q-3.1-2.793-8.736-2.793-5.235,0-8.165,2.308a7.7,7.7,0,0,0-2.931,6.407,6.927,6.927,0,0,0,2.783,5.558q2.783,2.271,9.474,4.155A43.956,43.956,0,0,1,602.7,30.321a15.886,15.886,0,0,1,5.6,5.29,13.5,13.5,0,0,1,1.825,7.114,12.54,12.54,0,0,1-5.087,10.451q-5.087,3.926-13.6,3.926a25.228,25.228,0,0,1-10.322-2.12,17.371,17.371,0,0,1-7.391-5.806,14.169,14.169,0,0,1-2.6-8.368h7.115a9.244,9.244,0,0,0,3.594,7.686q3.594,2.82,9.6,2.82,5.6,0,8.589-2.285a7.424,7.424,0,0,0,2.986-6.23,7.288,7.288,0,0,0-2.765-6.1Q597.482,34.542,590.22,32.44Zm67.369,9.879H635.1l-5.05,14.045h-7.3l20.5-53.672h6.193l20.532,53.672h-7.262Zm-20.348-5.787h18.247l-9.142-25.1ZM695.1,2.692l17.547,43.793L730.193,2.692h9.179V56.364h-7.078v-20.9l.664-22.56-17.62,43.461h-5.419l-17.583-43.35.7,22.449v20.9h-7.078V2.692ZM829.322,56.364h-7.115V31.556H795.15V56.364h-7.078V2.692h7.078V25.768h27.057V2.692h7.115ZM880.95,42.32H858.464l-5.05,14.045h-7.3l20.5-53.672H872.8l20.532,53.672h-7.262ZM860.6,36.532h18.247l-9.142-25.1Zm78.317-3.871H916.4v23.7h-7.078V2.692h33.25V8.48H916.4V26.874h22.523Zm51.223-1.106h-23.26V50.577H993.9v5.787H959.8V2.692h33.729V8.48H966.882V25.768h23.26Zm26.636,19.021h30.707v5.787H1008.41V51.056L1037.827,8.48h-28.937V2.692H1046.3V7.857Z" transform="translate(5.651 129.46)" fill="#dedede"/>
      <path id="Path_358" data-name="Path 358" d="M18.463,22.669H6.578L3.909,30.093H.051L10.884,1.723h3.273L25.01,30.093H21.172ZM7.708,19.61h9.645L12.521,6.341Zm36.155-.994H37.2V30.093H33.439V1.723H42.83q4.793,0,7.375,2.182a7.852,7.852,0,0,1,2.582,6.352,7.637,7.637,0,0,1-1.432,4.618,8.549,8.549,0,0,1-3.985,2.942l6.664,12.041v.234H50.02ZM37.2,15.557h5.748a6.483,6.483,0,0,0,4.433-1.444,4.885,4.885,0,0,0,1.646-3.865,5.144,5.144,0,0,0-1.569-4.04,6.642,6.642,0,0,0-4.53-1.425H37.2Zm46.326,5.534A10.437,10.437,0,0,1,80.2,28.037a10.887,10.887,0,0,1-7.433,2.445,10,10,0,0,1-8.057-3.6q-3.03-3.6-3.03-9.645V14.5A16.164,16.164,0,0,1,63.1,7.549a10.552,10.552,0,0,1,4-4.608,11.149,11.149,0,0,1,6-1.607,10.251,10.251,0,0,1,7.248,2.523,10.563,10.563,0,0,1,3.176,6.985H79.764A8.151,8.151,0,0,0,77.65,5.917,6.4,6.4,0,0,0,73.1,4.392a6.693,6.693,0,0,0-5.621,2.652Q65.443,9.7,65.443,14.591v2.75a12.515,12.515,0,0,0,1.929,7.352,6.233,6.233,0,0,0,5.4,2.73,7.2,7.2,0,0,0,4.783-1.413q1.666-1.413,2.211-4.92Zm31.537,9H111.3V16.979H97V30.093H93.259V1.723H97v12.2h14.3V1.723h3.761Zm30.31-25.31h-9.119v25.31h-3.722V4.782h-9.1V1.723h21.94Zm24.873,12.2H157.95V27.034h14.282v3.059H154.209V1.723h17.828V4.782H157.95V13.92h12.295Zm32.141,4.111a10.437,10.437,0,0,1-3.322,6.946,10.887,10.887,0,0,1-7.433,2.445,10,10,0,0,1-8.057-3.6q-3.03-3.6-3.03-9.645V14.5a16.164,16.164,0,0,1,1.413-6.956,10.552,10.552,0,0,1,4-4.608,11.149,11.149,0,0,1,6-1.607,10.251,10.251,0,0,1,7.248,2.523,10.563,10.563,0,0,1,3.176,6.985h-3.761a8.151,8.151,0,0,0-2.114-4.925,6.4,6.4,0,0,0-4.55-1.524,6.693,6.693,0,0,0-5.621,2.652Q184.3,9.7,184.3,14.591v2.75a12.515,12.515,0,0,0,1.929,7.352,6.233,6.233,0,0,0,5.4,2.73,7.2,7.2,0,0,0,4.783-1.413q1.666-1.413,2.212-4.92Zm28.77-16.309h-9.119v25.31h-3.722V4.782h-9.1V1.723h21.94Zm16.885,12.665a17.591,17.591,0,0,1-7-3.4,6.5,6.5,0,0,1-2.192-4.978,6.862,6.862,0,0,1,2.679-5.543,10.648,10.648,0,0,1,6.966-2.192,11.623,11.623,0,0,1,5.212,1.13,8.57,8.57,0,0,1,3.546,3.118A7.972,7.972,0,0,1,258.5,9.926h-3.76a5.187,5.187,0,0,0-1.637-4.057,6.656,6.656,0,0,0-4.618-1.476,6.814,6.814,0,0,0-4.316,1.22A4.07,4.07,0,0,0,242.624,9a3.662,3.662,0,0,0,1.471,2.938,14.429,14.429,0,0,0,5.008,2.2,23.234,23.234,0,0,1,5.534,2.194,8.4,8.4,0,0,1,2.962,2.8,7.136,7.136,0,0,1,.965,3.761,6.628,6.628,0,0,1-2.689,5.524,11.465,11.465,0,0,1-7.19,2.075,13.335,13.335,0,0,1-5.456-1.12,9.181,9.181,0,0,1-3.907-3.069,7.489,7.489,0,0,1-1.374-4.423h3.761a4.886,4.886,0,0,0,1.9,4.063,8,8,0,0,0,5.076,1.491,7.353,7.353,0,0,0,4.54-1.208,3.924,3.924,0,0,0,1.578-3.293,3.852,3.852,0,0,0-1.461-3.225A16.847,16.847,0,0,0,248.041,17.447ZM282.005,28.2a2.257,2.257,0,0,1,.555-1.559,2.116,2.116,0,0,1,1.666-.624,2.179,2.179,0,0,1,1.685.624,2.212,2.212,0,0,1,.575,1.559,2.092,2.092,0,0,1-.575,1.5,2.219,2.219,0,0,1-1.685.6,2,2,0,0,1-2.221-2.1Zm33.867-9.216V30.093h-3.741V1.723h10.463a10.512,10.512,0,0,1,7.3,2.377,8.059,8.059,0,0,1,2.64,6.294,7.952,7.952,0,0,1-2.582,6.362q-2.582,2.231-7.394,2.231Zm0-3.059h6.722a6.721,6.721,0,0,0,4.6-1.415,5.174,5.174,0,0,0,1.6-4.089,5.346,5.346,0,0,0-1.6-4.06,6.3,6.3,0,0,0-4.384-1.581h-6.936Zm29.822,11.106h13.444v3.059h-17.2V1.723h3.76Zm38.376-4.365H372.185l-2.669,7.424h-3.858L376.491,1.723h3.273l10.853,28.369h-3.838ZM373.315,19.61h9.645L378.128,6.341Zm47.553,10.483h-3.761L402.826,8.231V30.093h-3.76V1.723h3.76l14.321,21.959V1.723h3.722Zm33.076,0h-3.761L435.9,8.231V30.093h-3.761V1.723H435.9l14.321,21.959V1.723h3.722Zm27.309-13.113H468.959V27.034h14.282v3.059H465.218V1.723h17.828V4.782H468.959V13.92h12.295Zm21.678,1.637h-6.664V30.093h-3.761V1.723H501.9q4.793,0,7.375,2.182a7.851,7.851,0,0,1,2.582,6.352,7.637,7.637,0,0,1-1.432,4.618,8.549,8.549,0,0,1-3.985,2.942L513.1,29.859v.234h-4.014Zm-6.664-3.059h5.748a6.483,6.483,0,0,0,4.433-1.444,4.885,4.885,0,0,0,1.646-3.865,5.144,5.144,0,0,0-1.568-4.04A6.642,6.642,0,0,0,502,4.782h-5.728Zm33.817,1.89a17.59,17.59,0,0,1-7-3.4,6.5,6.5,0,0,1-2.192-4.978,6.862,6.862,0,0,1,2.679-5.543,10.648,10.648,0,0,1,6.966-2.192,11.623,11.623,0,0,1,5.212,1.13,8.57,8.57,0,0,1,3.546,3.118,7.972,7.972,0,0,1,1.257,4.345h-3.761a5.187,5.187,0,0,0-1.637-4.057,6.655,6.655,0,0,0-4.618-1.476,6.814,6.814,0,0,0-4.316,1.22A4.07,4.07,0,0,0,524.668,9a3.661,3.661,0,0,0,1.471,2.938,14.429,14.429,0,0,0,5.008,2.2,23.234,23.234,0,0,1,5.534,2.194,8.4,8.4,0,0,1,2.962,2.8,7.136,7.136,0,0,1,.965,3.761,6.628,6.628,0,0,1-2.689,5.524,11.464,11.464,0,0,1-7.19,2.075,13.334,13.334,0,0,1-5.456-1.12,9.181,9.181,0,0,1-3.907-3.069,7.489,7.489,0,0,1-1.374-4.423h3.761a4.886,4.886,0,0,0,1.9,4.063,8,8,0,0,0,5.076,1.491,7.353,7.353,0,0,0,4.54-1.208,3.924,3.924,0,0,0,1.578-3.293,3.852,3.852,0,0,0-1.461-3.225A16.846,16.846,0,0,0,530.084,17.447ZM564.049,28.2a2.257,2.257,0,0,1,.555-1.559,2.116,2.116,0,0,1,1.666-.624,2.179,2.179,0,0,1,1.685.624,2.212,2.212,0,0,1,.575,1.559,2.092,2.092,0,0,1-.575,1.5,2.219,2.219,0,0,1-1.685.6,2,2,0,0,1-2.221-2.1Zm34.14,1.89h-3.741V1.723h3.741Zm33.271,0H627.7L613.417,8.231V30.093h-3.76V1.723h3.76l14.321,21.959V1.723h3.722Zm30.31-25.31H652.65v25.31h-3.722V4.782h-9.1V1.723h21.94Zm24.873,12.2H674.347V27.034h14.282v3.059H670.606V1.723h17.828V4.782H674.347V13.92h12.295Zm21.678,1.637h-6.664V30.093H697.9V1.723h9.392q4.793,0,7.375,2.182a7.852,7.852,0,0,1,2.582,6.352,7.637,7.637,0,0,1-1.432,4.618,8.548,8.548,0,0,1-3.985,2.942l6.664,12.041v.234h-4.014Zm-6.664-3.059H707.4a6.483,6.483,0,0,0,4.433-1.444,4.885,4.885,0,0,0,1.646-3.865,5.143,5.143,0,0,0-1.569-4.04,6.641,6.641,0,0,0-4.53-1.425h-5.729Zm29.472,14.535h-3.741V1.723h3.741Zm33.291-13.269a17.549,17.549,0,0,1-1.4,7.277,10.626,10.626,0,0,1-3.975,4.744,10.968,10.968,0,0,1-15.968-4.706,16.838,16.838,0,0,1-1.471-7.063V15.031A17.341,17.341,0,0,1,743.025,7.8,10.52,10.52,0,0,1,753,1.333a11,11,0,0,1,6.011,1.646,10.606,10.606,0,0,1,4,4.774,17.634,17.634,0,0,1,1.4,7.277ZM760.7,14.992q0-5.046-2.026-7.745a6.684,6.684,0,0,0-5.67-2.7,6.612,6.612,0,0,0-5.582,2.7,12.459,12.459,0,0,0-2.095,7.492v2.085a12.738,12.738,0,0,0,2.056,7.687,7.2,7.2,0,0,0,11.272.156q1.987-2.64,2.046-7.57Zm24.367,3.624H778.4V30.093h-3.76V1.723h9.391q4.793,0,7.375,2.182a7.851,7.851,0,0,1,2.582,6.352,7.637,7.637,0,0,1-1.432,4.618,8.548,8.548,0,0,1-3.985,2.942l6.664,12.041v.234h-4.014ZM778.4,15.557h5.748a6.483,6.483,0,0,0,4.433-1.444,4.885,4.885,0,0,0,1.646-3.865,5.144,5.144,0,0,0-1.568-4.04,6.642,6.642,0,0,0-4.53-1.425H778.4Zm39.965,14.535V1.723h8.008a12.892,12.892,0,0,1,6.547,1.637,11.07,11.07,0,0,1,4.394,4.657,15.158,15.158,0,0,1,1.568,6.936v1.812a15.21,15.21,0,0,1-1.549,7.034,10.9,10.9,0,0,1-4.423,4.637,13.712,13.712,0,0,1-6.693,1.656Zm3.741-25.31V27.034h3.936a8.564,8.564,0,0,0,6.732-2.691q2.406-2.691,2.406-7.664V15.02q0-4.836-2.27-7.518a8.078,8.078,0,0,0-6.44-2.721Zm43.091,12.2H852.9V27.034h14.282v3.059H849.162V1.723h17.828V4.782H852.9V13.92H865.2Zm19.632.468a17.591,17.591,0,0,1-7-3.4,6.5,6.5,0,0,1-2.192-4.978,6.862,6.862,0,0,1,2.679-5.543,10.647,10.647,0,0,1,6.966-2.192,11.622,11.622,0,0,1,5.212,1.13,8.569,8.569,0,0,1,3.546,3.118,7.971,7.971,0,0,1,1.257,4.345h-3.76A5.187,5.187,0,0,0,889.9,5.869a6.656,6.656,0,0,0-4.618-1.476,6.814,6.814,0,0,0-4.316,1.22A4.07,4.07,0,0,0,879.413,9a3.661,3.661,0,0,0,1.471,2.938,14.428,14.428,0,0,0,5.007,2.2,23.233,23.233,0,0,1,5.534,2.194,8.4,8.4,0,0,1,2.962,2.8,7.136,7.136,0,0,1,.964,3.761,6.629,6.629,0,0,1-2.689,5.524,11.464,11.464,0,0,1-7.19,2.075,13.335,13.335,0,0,1-5.456-1.12,9.183,9.183,0,0,1-3.907-3.069,7.49,7.49,0,0,1-1.374-4.423h3.76a4.886,4.886,0,0,0,1.9,4.063,8,8,0,0,0,5.076,1.491,7.353,7.353,0,0,0,4.54-1.208,3.924,3.924,0,0,0,1.578-3.293A3.852,3.852,0,0,0,890.13,19.7,16.847,16.847,0,0,0,884.83,17.447Zm23.958,12.645h-3.741V1.723h3.741ZM941.2,26.371a8.643,8.643,0,0,1-4.024,3.088,16.251,16.251,0,0,1-6.011,1.023,11.657,11.657,0,0,1-6.157-1.627,10.839,10.839,0,0,1-4.16-4.628,15.979,15.979,0,0,1-1.51-6.956V14.8q0-6.41,2.991-9.937a10.422,10.422,0,0,1,8.408-3.527,10.764,10.764,0,0,1,7.151,2.27,9.89,9.89,0,0,1,3.312,6.44H937.46q-1.052-5.651-6.7-5.651a6.622,6.622,0,0,0-5.7,2.642q-1.939,2.642-1.958,7.654v2.32a12.092,12.092,0,0,0,2.182,7.6,7.074,7.074,0,0,0,5.9,2.818,13.039,13.039,0,0,0,3.682-.467,5.7,5.7,0,0,0,2.611-1.574V19.025h-6.566V15.966H941.2Zm32.667,3.722h-3.76L955.826,8.231V30.093h-3.76V1.723h3.76l14.321,21.959V1.723h3.721Zm27.309-13.113H988.883V27.034h14.282v3.059H985.142V1.723h17.828V4.782H988.883V13.92h12.295Zm21.678,1.637h-6.664V30.093h-3.76V1.723h9.391q4.793,0,7.375,2.182a7.852,7.852,0,0,1,2.582,6.352,7.637,7.637,0,0,1-1.432,4.618,8.549,8.549,0,0,1-3.985,2.942l6.664,12.041v.234h-4.014Zm-6.664-3.059h5.748a6.484,6.484,0,0,0,4.433-1.444,4.885,4.885,0,0,0,1.646-3.865,5.143,5.143,0,0,0-1.568-4.04,6.642,6.642,0,0,0-4.53-1.425h-5.728Zm33.817,1.89a17.59,17.59,0,0,1-7-3.4,6.5,6.5,0,0,1-2.192-4.978,6.862,6.862,0,0,1,2.679-5.543,10.647,10.647,0,0,1,6.966-2.192,11.622,11.622,0,0,1,5.212,1.13,8.57,8.57,0,0,1,3.546,3.118,7.971,7.971,0,0,1,1.257,4.345h-3.76a5.187,5.187,0,0,0-1.637-4.057,6.655,6.655,0,0,0-4.618-1.476,6.813,6.813,0,0,0-4.316,1.22A4.069,4.069,0,0,0,1044.592,9a3.661,3.661,0,0,0,1.471,2.938,14.429,14.429,0,0,0,5.008,2.2,23.231,23.231,0,0,1,5.534,2.194,8.4,8.4,0,0,1,2.962,2.8,7.136,7.136,0,0,1,.964,3.761,6.628,6.628,0,0,1-2.689,5.524,11.464,11.464,0,0,1-7.19,2.075,13.335,13.335,0,0,1-5.456-1.12,9.182,9.182,0,0,1-3.907-3.069,7.49,7.49,0,0,1-1.374-4.423h3.76a4.886,4.886,0,0,0,1.9,4.063,8,8,0,0,0,5.076,1.491,7.353,7.353,0,0,0,4.54-1.208,3.924,3.924,0,0,0,1.578-3.293,3.853,3.853,0,0,0-1.461-3.225A16.849,16.849,0,0,0,1050.008,17.447Z" transform="translate(0.495 205.518)" fill="#bbb"/>
      <line id="Line_12" data-name="Line 12" x2="1067.71" transform="translate(0 98.292)" fill="none" stroke="#bbb" stroke-width="1"/>
    </g>
  </g>
</svg>
